<mxfile host="app.diagrams.net" agent="Mozilla/5.0 (Windows NT 10.0; Win64; x64) AppleWebKit/537.36 (KHTML, like Gecko) Chrome/138.0.0.0 Safari/537.36" version="28.0.7">
  <diagram name="Page-1" id="hZFe1lUD5B2FWxIj5zhc">
    <mxGraphModel dx="1811" dy="598" grid="1" gridSize="6" guides="1" tooltips="1" connect="1" arrows="1" fold="1" page="1" pageScale="1" pageWidth="1169" pageHeight="827" math="1" shadow="0">
      <root>
        <mxCell id="0" />
        <mxCell id="1" parent="0" />
        <mxCell id="-qssc6l0dZiJQCDXnQfR-2" value="" style="shape=image;verticalLabelPosition=bottom;labelBackgroundColor=default;verticalAlign=top;aspect=fixed;imageAspect=0;editableCssRules=.*;image=data:image/svg+xml,PHN2ZyB4bWxuczp4bGluaz0iaHR0cDovL3d3dy53My5vcmcvMTk5OS94bGluayIgeG1sbnM9Imh0dHA6Ly93d3cudzMub3JnLzIwMDAvc3ZnIiBzdHlsZT0iIiBhcmlhLWhpZGRlbj0idHJ1ZSIgdmlld0JveD0iMTkxLjY5OTk5Njk0ODI0MjIgLTIxMjAuNzM5MjU3ODEyNSA2MDU2LjM5OTkwMjM0Mzc1IDM2MjkuNjM5MTYwMTU2MjUiIGhlaWdodD0iNjUuNjkxODQxNjU2NDA3ODYiIHdpZHRoPSIxMDkuNjE2MjE1MDI2Mzg5NTUiPjxkZWZzPjxwYXRoIGQ9Ik00MSA0Nkg1NVE5NCA0NiAxMDIgNjBWNjhRMTAyIDc3IDEwMiA5MVQxMDIgMTIyVDEwMyAxNjFUMTAzIDIwM1ExMDMgMjM0IDEwMyAyNjlUMTAyIDMyOFYzNTFROTkgMzcwIDg4IDM3NlQ0MyAzODVIMjVWNDA4UTI1IDQzMSAyNyA0MzFMMzcgNDMyUTQ3IDQzMyA2NSA0MzRUMTAyIDQzNlExMTkgNDM3IDEzOCA0MzhUMTY3IDQ0MVQxNzggNDQySDE4MVY0MDJRMTgxIDM2NCAxODIgMzY0VDE4NyAzNjlUMTk5IDM4NFQyMTggNDAyVDI0NyA0MjFUMjg1IDQzN1EzMDUgNDQyIDMzNiA0NDJRMzUxIDQ0MiAzNjQgNDQwVDM4NyA0MzRUNDA2IDQyNlQ0MjEgNDE3VDQzMiA0MDZUNDQxIDM5NVQ0NDggMzg0VDQ1MiAzNzRUNDU1IDM2Nkw0NTcgMzYxTDQ2MCAzNjVRNDYzIDM2OSA0NjYgMzczVDQ3NSAzODRUNDg4IDM5N1Q1MDMgNDEwVDUyMyA0MjJUNTQ2IDQzMlQ1NzIgNDM5VDYwMyA0NDJRNzI5IDQ0MiA3NDAgMzI5UTc0MSAzMjIgNzQxIDE5MFYxMDRRNzQxIDY2IDc0MyA1OVQ3NTQgNDlRNzc1IDQ2IDgwMyA0Nkg4MTlWMEg4MTFMNzg4IDFRNzY0IDIgNzM3IDJUNjk5IDNRNTk2IDMgNTg3IDBINTc5VjQ2SDU5NVE2NTYgNDYgNjU2IDYyUTY1NyA2NCA2NTcgMjAwUTY1NiAzMzUgNjU1IDM0M1E2NDkgMzcxIDYzNSAzODVUNjExIDQwMlQ1ODUgNDA0UTU0MCA0MDQgNTA2IDM3MFE0NzkgMzQzIDQ3MiAzMTVUNDY0IDIzMlYxNjhWMTA4UTQ2NCA3OCA0NjUgNjhUNDY4IDU1VDQ3NyA0OVE0OTggNDYgNTI2IDQ2SDU0MlYwSDUzNEw1MTAgMVE0ODcgMiA0NjAgMlQ0MjIgM1EzMTkgMyAzMTAgMEgzMDJWNDZIMzE4UTM3OSA0NiAzNzkgNjJRMzgwIDY0IDM4MCAyMDBRMzc5IDMzNSAzNzggMzQzUTM3MiAzNzEgMzU4IDM4NVQzMzQgNDAyVDMwOCA0MDRRMjYzIDQwNCAyMjkgMzcwUTIwMiAzNDMgMTk1IDMxNVQxODcgMjMyVjE2OFYxMDhRMTg3IDc4IDE4OCA2OFQxOTEgNTVUMjAwIDQ5UTIyMSA0NiAyNDkgNDZIMjY1VjBIMjU3TDIzNCAxUTIxMCAyIDE4MyAyVDE0NSAzUTQyIDMgMzMgMEgyNVY0Nkg0MVoiIGlkPSJNSlgtNS1URVgtTi02RCIvPjxwYXRoIGQ9Ik02OSA2MDlRNjkgNjM3IDg3IDY1M1QxMzEgNjY5UTE1NCA2NjcgMTcxIDY1MlQxODggNjA5UTE4OCA1NzkgMTcxIDU2NFQxMjkgNTQ5UTEwNCA1NDkgODcgNTY0VDY5IDYwOVpNMjQ3IDBRMjMyIDMgMTQzIDNRMTMyIDMgMTA2IDNUNTYgMUwzNCAwSDI2VjQ2SDQyUTcwIDQ2IDkxIDQ5UTEwMCA1MyAxMDIgNjBUMTA0IDEwMlYyMDVWMjkzUTEwNCAzNDUgMTAyIDM1OVQ4OCAzNzhRNzQgMzg1IDQxIDM4NUgzMFY0MDhRMzAgNDMxIDMyIDQzMUw0MiA0MzJRNTIgNDMzIDcwIDQzNFQxMDYgNDM2UTEyMyA0MzcgMTQyIDQzOFQxNzEgNDQxVDE4MiA0NDJIMTg1VjYyUTE5MCA1MiAxOTcgNTBUMjMyIDQ2SDI1NVYwSDI0N1oiIGlkPSJNSlgtNS1URVgtTi02OSIvPjxwYXRoIGQ9Ik00MSA0Nkg1NVE5NCA0NiAxMDIgNjBWNjhRMTAyIDc3IDEwMiA5MVQxMDIgMTIyVDEwMyAxNjFUMTAzIDIwM1ExMDMgMjM0IDEwMyAyNjlUMTAyIDMyOFYzNTFROTkgMzcwIDg4IDM3NlQ0MyAzODVIMjVWNDA4UTI1IDQzMSAyNyA0MzFMMzcgNDMyUTQ3IDQzMyA2NSA0MzRUMTAyIDQzNlExMTkgNDM3IDEzOCA0MzhUMTY3IDQ0MVQxNzggNDQySDE4MVY0MDJRMTgxIDM2NCAxODIgMzY0VDE4NyAzNjlUMTk5IDM4NFQyMTggNDAyVDI0NyA0MjFUMjg1IDQzN1EzMDUgNDQyIDMzNiA0NDJRNDUwIDQzOCA0NjMgMzI5UTQ2NCAzMjIgNDY0IDE5MFYxMDRRNDY0IDY2IDQ2NiA1OVQ0NzcgNDlRNDk4IDQ2IDUyNiA0Nkg1NDJWMEg1MzRMNTEwIDFRNDg3IDIgNDYwIDJUNDIyIDNRMzE5IDMgMzEwIDBIMzAyVjQ2SDMxOFEzNzkgNDYgMzc5IDYyUTM4MCA2NCAzODAgMjAwUTM3OSAzMzUgMzc4IDM0M1EzNzIgMzcxIDM1OCAzODVUMzM0IDQwMlQzMDggNDA0UTI2MyA0MDQgMjI5IDM3MFEyMDIgMzQzIDE5NSAzMTVUMTg3IDIzMlYxNjhWMTA4UTE4NyA3OCAxODggNjhUMTkxIDU1VDIwMCA0OVEyMjEgNDYgMjQ5IDQ2SDI2NVYwSDI1N0wyMzQgMVEyMTAgMiAxODMgMlQxNDUgM1E0MiAzIDMzIDBIMjVWNDZINDFaIiBpZD0iTUpYLTUtVEVYLU4tNkUiLz48cGF0aCBkPSJNMzQgMTU5UTM0IDI2OCAxMjAgMzU1VDMwNiA0NDJRMzYyIDQ0MiAzOTQgNDE4VDQyNyAzNTVRNDI3IDMyNiA0MDggMzA2VDM2MCAyODVRMzQxIDI4NSAzMzAgMjk1VDMxOSAzMjVUMzMwIDM1OVQzNTIgMzgwVDM2NiAzODZIMzY3UTM2NyAzODggMzYxIDM5MlQzNDAgNDAwVDMwNiA0MDRRMjc2IDQwNCAyNDkgMzkwUTIyOCAzODEgMjA2IDM1OVExNjIgMzE1IDE0MiAyMzVUMTIxIDExOVExMjEgNzMgMTQ3IDUwUTE2OSAyNiAyMDUgMjZIMjA5UTMyMSAyNiAzOTQgMTExUTQwMyAxMjEgNDA2IDEyMVE0MTAgMTIxIDQxOSAxMTJUNDI5IDk4VDQyMCA4M1QzOTEgNTVUMzQ2IDI1VDI4MiAwVDIwMiAtMTFRMTI3IC0xMSA4MSAzN1QzNCAxNTlaIiBpZD0iTUpYLTUtVEVYLUktMUQ0NTAiLz48cGF0aCBkPSJNNDAgNDM3UTIxIDQzNyAyMSA0NDVRMjEgNDUwIDM3IDUwMVQ3MSA2MDJMODggNjUxUTkzIDY2OSAxMDEgNjc3SDU2OUg2NTlRNjkxIDY3NyA2OTcgNjc2VDcwNCA2NjdRNzA0IDY2MSA2ODcgNTUzVDY2OCA0NDRRNjY4IDQzNyA2NDkgNDM3UTY0MCA0MzcgNjM3IDQzN1Q2MzEgNDQyTDYyOSA0NDVRNjI5IDQ1MSA2MzUgNDkwVDY0MSA1NTFRNjQxIDU4NiA2MjggNjA0VDU3MyA2MjlRNTY4IDYzMCA1MTUgNjMxUTQ2OSA2MzEgNDU3IDYzMFQ0MzkgNjIyUTQzOCA2MjEgMzY4IDM0M1QyOTggNjBRMjk4IDQ4IDM4NiA0NlE0MTggNDYgNDI3IDQ1VDQzNiAzNlE0MzYgMzEgNDMzIDIyUTQyOSA0IDQyNCAxTDQyMiAwUTQxOSAwIDQxNSAwUTQxMCAwIDM2MyAxVDIyOCAyUTk5IDIgNjQgMEg0OVE0MyA2IDQzIDlUNDUgMjdRNDkgNDAgNTUgNDZIODNIOTRRMTc0IDQ2IDE4OSA1NVExOTAgNTYgMTkxIDU2UTE5NiA1OSAyMDEgNzZUMjQxIDIzM1EyNTggMzAxIDI2OSAzNDRRMzM5IDYxOSAzMzkgNjI1UTMzOSA2MzAgMzEwIDYzMEgyNzlRMjEyIDYzMCAxOTEgNjI0UTE0NiA2MTQgMTIxIDU4M1Q2NyA0NjdRNjAgNDQ1IDU3IDQ0MVQ0MyA0MzdINDBaIiBpZD0iTUpYLTUtVEVYLUktMUQ0NDciLz48cGF0aCBkPSJNMjI3IDBRMjEyIDMgMTIxIDNRNDAgMyAyOCAwSDIxVjYySDExN0wyNDUgMjEzTDEwOSAzODJIMjZWNDQ0SDM0UTQ5IDQ0MSAxNDMgNDQxUTI0NyA0NDEgMjY1IDQ0NEgyNzRWMzgySDI0NkwyODEgMzM5UTMxNSAyOTcgMzE2IDI5N1EzMjAgMjk3IDM1NCAzNDFMMzg5IDM4MkgzNTJWNDQ0SDM2MFEzNzUgNDQxIDQ2NiA0NDFRNTQ3IDQ0MSA1NTkgNDQ0SDU2NlYzODJINDcxTDM1NSAyNDZMNTA0IDYzTDU0NSA2Mkg1ODZWMEg1NzhRNTYzIDMgNDY5IDNRMzY1IDMgMzQ3IDBIMzM4VjYySDM2NlEzNjYgNjMgMzI2IDExMlQyODUgMTYzTDE5OCA2M0wyMTcgNjJIMjM1VjBIMjI3WiIgaWQ9Ik1KWC01LVRFWC1CLTFENDMxIi8+PHBhdGggZD0iTTI5NSAzMTZRMjk1IDM1NiAyNjggMzg1VDE5MCA0MTRRMTU0IDQxNCAxMjggNDAxUTk4IDM4MiA5OCAzNDlROTcgMzQ0IDk4IDMzNlQxMTQgMzEyVDE1NyAyODdRMTc1IDI4MiAyMDEgMjc4VDI0NSAyNjlUMjc3IDI1NlEyOTQgMjQ4IDMxMCAyMzZUMzQyIDE5NVQzNTkgMTMzUTM1OSA3MSAzMjEgMzFUMTk4IC0xMEgxOTBRMTM4IC0xMCA5NCAyNkw4NiAxOUw3NyAxMFE3MSA0IDY1IC0xTDU0IC0xMUg0Nkg0MlEzOSAtMTEgMzMgLTVWNzRWMTMyUTMzIDE1MyAzNSAxNTdUNDUgMTYySDU0UTY2IDE2MiA3MCAxNThUNzUgMTQ2VDgyIDExOVQxMDEgNzdRMTM2IDI2IDE5OCAyNlEyOTUgMjYgMjk1IDEwNFEyOTUgMTMzIDI3NyAxNTFRMjU3IDE3NSAxOTQgMTg3VDExMSAyMTBRNzUgMjI3IDU0IDI1NlQzMyAzMThRMzMgMzU3IDUwIDM4NFQ5MyA0MjRUMTQzIDQ0MlQxODcgNDQ3SDE5OFEyMzggNDQ3IDI2OCA0MzJMMjgzIDQyNEwyOTIgNDMxUTMwMiA0NDAgMzE0IDQ0OEgzMjJIMzI2UTMyOSA0NDggMzM1IDQ0MlYzMTBMMzI5IDMwNEgzMDFRMjk1IDMxMCAyOTUgMzE2WiIgaWQ9Ik1KWC01LVRFWC1OLTczIi8+PHBhdGggZD0iTTc4IDYwUTc4IDg0IDk1IDEwMlQxMzggMTIwUTE2MiAxMjAgMTgwIDEwNFQxOTkgNjFRMTk5IDM2IDE4MiAxOFQxMzkgMFQ5NiAxN1Q3OCA2MFoiIGlkPSJNSlgtNS1URVgtTi0yRSIvPjxwYXRoIGQ9Ik0yNyA0MjJRODAgNDI2IDEwOSA0NzhUMTQxIDYwMFY2MTVIMTgxVjQzMUgzMTZWMzg1SDE4MVYyNDFRMTgyIDExNiAxODIgMTAwVDE4OSA2OFEyMDMgMjkgMjM4IDI5UTI4MiAyOSAyOTIgMTAwUTI5MyAxMDggMjkzIDE0NlYxODFIMzMzVjE0NlYxMzRRMzMzIDU3IDI5MSAxN1EyNjQgLTEwIDIyMSAtMTBRMTg3IC0xMCAxNjIgMlQxMjQgMzNUMTA1IDY4VDk4IDEwMFE5NyAxMDcgOTcgMjQ4VjM4NUgxOFY0MjJIMjdaIiBpZD0iTUpYLTUtVEVYLU4tNzQiLz48cGF0aCBkPSJNMjA4IDc0UTIwOCA1MCAyNTQgNDZRMjcyIDQ2IDI3MiAzNVEyNzIgMzQgMjcwIDIyUTI2NyA4IDI2NCA0VDI1MSAwUTI0OSAwIDIzOSAwVDIwNSAxVDE0MSAyUTcwIDIgNTAgMEg0MlEzNSA3IDM1IDExUTM3IDM4IDQ4IDQ2SDYyUTEzMiA0OSAxNjQgOTZRMTcwIDEwMiAzNDUgNDAxVDUyMyA3MDRRNTMwIDcxNiA1NDcgNzE2SDU1NUg1NzJRNTc4IDcwNyA1NzggNzA2TDYwNiAzODNRNjM0IDYwIDYzNiA1N1E2NDEgNDYgNzAxIDQ2UTcyNiA0NiA3MjYgMzZRNzI2IDM0IDcyMyAyMlE3MjAgNyA3MTggNFQ3MDQgMFE3MDEgMCA2OTAgMFQ2NTEgMVQ1NzggMlE0ODQgMiA0NTUgMEg0NDNRNDM3IDYgNDM3IDlUNDM5IDI3UTQ0MyA0MCA0NDUgNDNMNDQ5IDQ2SDQ2OVE1MjMgNDkgNTMzIDYzTDUyMSAyMTNIMjgzTDI0OSAxNTVRMjA4IDg2IDIwOCA3NFpNNTE2IDI2MFE1MTYgMjcxIDUwNCA0MTZUNDkwIDU2Mkw0NjMgNTE5UTQ0NyA0OTIgNDAwIDQxMkwzMTAgMjYwTDQxMyAyNTlRNTE2IDI1OSA1MTYgMjYwWiIgaWQ9Ik1KWC01LVRFWC1JLTFENDM0Ii8+PHBhdGggZD0iTTgzIDYxNlE4MyA2MjQgODkgNjMwVDk5IDYzNlExMDcgNjM2IDI1MyA1NjhUNTQzIDQzMVQ2ODcgMzYxUTY5NCAzNTYgNjk0IDM0NlQ2ODcgMzMxUTY4NSAzMjkgMzk1IDE5MkwxMDcgNTZIMTAxUTgzIDU4IDgzIDc2UTgzIDc3IDgzIDc5UTgyIDg2IDk4IDk1UTExNyAxMDUgMjQ4IDE2N1EzMjYgMjA0IDM3OCAyMjhMNjI2IDM0NkwzNjAgNDcyUTI5MSA1MDUgMjAwIDU0OFExMTIgNTg5IDk4IDU5N1Q4MyA2MTZaTTg0IC0xMThRODQgLTEwOCA5OSAtOThINjc4UTY5NCAtMTA0IDY5NCAtMTE4UTY5NCAtMTMwIDY3OSAtMTM4SDk4UTg0IC0xMzEgODQgLTExOFoiIGlkPSJNSlgtNS1URVgtTi0yMjY1Ii8+PHBhdGggZD0iTTczIDY0N1E3MyA2NTcgNzcgNjcwVDg5IDY4M1E5MCA2ODMgMTYxIDY4OFQyMzQgNjk0UTI0NiA2OTQgMjQ2IDY4NVQyMTIgNTQyUTIwNCA1MDggMTk1IDQ3MlQxODAgNDE4TDE3NiAzOTlRMTc2IDM5NiAxODIgNDAyUTIzMSA0NDIgMjgzIDQ0MlEzNDUgNDQyIDM4MyAzOTZUNDIyIDI4MFE0MjIgMTY5IDM0MyA3OVQxNzMgLTExUTEyMyAtMTEgODIgMjdUNDAgMTUwVjE1OVE0MCAxODAgNDggMjE3VDk3IDQxNFExNDcgNjExIDE0NyA2MjNUMTA5IDYzN1ExMDQgNjM3IDEwMSA2MzdIOTZRODYgNjM3IDgzIDYzN1Q3NiA2NDBUNzMgNjQ3Wk0zMzYgMzI1VjMzMVEzMzYgNDA1IDI3NSA0MDVRMjU4IDQwNSAyNDAgMzk3VDIwNyAzNzZUMTgxIDM1MlQxNjMgMzMwTDE1NyAzMjJMMTM2IDIzNlExMTQgMTUwIDExNCAxMTRRMTE0IDY2IDEzOCA0MlExNTQgMjYgMTc4IDI2UTIxMSAyNiAyNDUgNThRMjcwIDgxIDI4NSAxMTRUMzE4IDIxOVEzMzYgMjkxIDMzNiAzMjVaIiBpZD0iTUpYLTUtVEVYLUktMUQ0NEYiLz48cGF0aCBkPSJNOTYgNTg1UTE1MiA2NjYgMjQ5IDY2NlEyOTcgNjY2IDM0NSA2NDBUNDIzIDU0OFE0NjAgNDY1IDQ2MCAzMjBRNDYwIDE2NSA0MTcgODNRMzk3IDQxIDM2MiAxNlQzMDEgLTE1VDI1MCAtMjJRMjI0IC0yMiAxOTggLTE2VDEzNyAxNlQ4MiA4M1EzOSAxNjUgMzkgMzIwUTM5IDQ5NCA5NiA1ODVaTTMyMSA1OTdRMjkxIDYyOSAyNTAgNjI5UTIwOCA2MjkgMTc4IDU5N1ExNTMgNTcxIDE0NSA1MjVUMTM3IDMzM1ExMzcgMTc1IDE0NSAxMjVUMTgxIDQ2UTIwOSAxNiAyNTAgMTZRMjkwIDE2IDMxOCA0NlEzNDcgNzYgMzU0IDEzMFQzNjIgMzMzUTM2MiA0NzggMzU0IDUyNFQzMjEgNTk3WiIgaWQ9Ik1KWC01LVRFWC1OLTMwIi8+PC9kZWZzPjxnIHRyYW5zZm9ybT0ic2NhbGUoMSwtMSkiIHN0cm9rZS13aWR0aD0iMCIgZmlsbD0iIzAwMDAwMCIgc3Ryb2tlPSIjMDAwMDAwIj48ZyBkYXRhLW1tbC1ub2RlPSJtYXRoIj48ZyBkYXRhLW1tbC1ub2RlPSJtdGFibGUiPjxnIHRyYW5zZm9ybT0idHJhbnNsYXRlKDAsMTIyOS4xKSIgZGF0YS1tbWwtbm9kZT0ibXRyIj48ZyBkYXRhLW1tbC1ub2RlPSJtdGQiLz48ZyBkYXRhLW1tbC1ub2RlPSJtdGQiLz48ZyBkYXRhLW1tbC1ub2RlPSJtdGQiPjxnIGRhdGEtbW1sLW5vZGU9Im1pIi8+PGcgdHJhbnNmb3JtPSJ0cmFuc2xhdGUoMTY2LjcsMCkiIGRhdGEtbW1sLW5vZGU9Im1vIj48dXNlIHhsaW5rOmhyZWY9IiNNSlgtNS1URVgtTi02RCIgZGF0YS1jPSI2RCIvPjx1c2UgdHJhbnNmb3JtPSJ0cmFuc2xhdGUoODMzLDApIiB4bGluazpocmVmPSIjTUpYLTUtVEVYLU4tNjkiIGRhdGEtYz0iNjkiLz48dXNlIHRyYW5zZm9ybT0idHJhbnNsYXRlKDExMTEsMCkiIHhsaW5rOmhyZWY9IiNNSlgtNS1URVgtTi02RSIgZGF0YS1jPSI2RSIvPjwvZz48L2c+PGcgdHJhbnNmb3JtPSJ0cmFuc2xhdGUoMTgzMy43LDApIiBkYXRhLW1tbC1ub2RlPSJtdGQiPjxnIGRhdGEtbW1sLW5vZGU9Im1zdHlsZSI+PGcgZGF0YS1tbWwtbm9kZT0ibXNwYWNlIi8+PC9nPjxnIHRyYW5zZm9ybT0idHJhbnNsYXRlKDEwMDAsMCkiIGRhdGEtbW1sLW5vZGU9Im1zdXAiPjxnIGRhdGEtbW1sLW5vZGU9Im1pIj48dXNlIHhsaW5rOmhyZWY9IiNNSlgtNS1URVgtSS0xRDQ1MCIgZGF0YS1jPSIxRDQ1MCIvPjwvZz48ZyB0cmFuc2Zvcm09InRyYW5zbGF0ZSg0NjYsNDEzKSBzY2FsZSgwLjcwNykiIGRhdGEtbW1sLW5vZGU9Im1pIj48dXNlIHhsaW5rOmhyZWY9IiNNSlgtNS1URVgtSS0xRDQ0NyIgZGF0YS1jPSIxRDQ0NyIvPjwvZz48L2c+PC9nPjxnIHRyYW5zZm9ybT0idHJhbnNsYXRlKDM4NDcuNSwwKSIgZGF0YS1tbWwtbm9kZT0ibXRkIi8+PGcgdHJhbnNmb3JtPSJ0cmFuc2xhdGUoMzg0Ny41LDApIiBkYXRhLW1tbC1ub2RlPSJtdGQiPjxnIGRhdGEtbWp4LXRleGNsYXNzPSJPUkQiIGRhdGEtbW1sLW5vZGU9IlRlWEF0b20iPjxnIGRhdGEtbW1sLW5vZGU9Im1pIj48dXNlIHhsaW5rOmhyZWY9IiNNSlgtNS1URVgtQi0xRDQzMSIgZGF0YS1jPSIxRDQzMSIvPjwvZz48L2c+PC9nPjwvZz48ZyB0cmFuc2Zvcm09InRyYW5zbGF0ZSgwLC03MC45KSIgZGF0YS1tbWwtbm9kZT0ibXRyIj48ZyBkYXRhLW1tbC1ub2RlPSJtdGQiLz48ZyBkYXRhLW1tbC1ub2RlPSJtdGQiLz48ZyB0cmFuc2Zvcm09InRyYW5zbGF0ZSg0OTQuNywwKSIgZGF0YS1tbWwtbm9kZT0ibXRkIj48ZyBkYXRhLW1tbC1ub2RlPSJtdGV4dCI+PHVzZSB4bGluazpocmVmPSIjTUpYLTUtVEVYLU4tNzMiIGRhdGEtYz0iNzMiLz48dXNlIHRyYW5zZm9ybT0idHJhbnNsYXRlKDM5NCwwKSIgeGxpbms6aHJlZj0iI01KWC01LVRFWC1OLTJFIiBkYXRhLWM9IjJFIi8+PHVzZSB0cmFuc2Zvcm09InRyYW5zbGF0ZSg2NzIsMCkiIHhsaW5rOmhyZWY9IiNNSlgtNS1URVgtTi03NCIgZGF0YS1jPSI3NCIvPjx1c2UgdHJhbnNmb3JtPSJ0cmFuc2xhdGUoMTA2MSwwKSIgeGxpbms6aHJlZj0iI01KWC01LVRFWC1OLTJFIiBkYXRhLWM9IjJFIi8+PC9nPjwvZz48ZyB0cmFuc2Zvcm09InRyYW5zbGF0ZSgxODMzLjcsMCkiIGRhdGEtbW1sLW5vZGU9Im10ZCI+PGcgZGF0YS1tbWwtbm9kZT0ibXN0eWxlIj48ZyBkYXRhLW1tbC1ub2RlPSJtc3BhY2UiLz48L2c+PGcgdHJhbnNmb3JtPSJ0cmFuc2xhdGUoMTAwMCwwKSIgZGF0YS1tbWwtbm9kZT0ibWkiPjx1c2UgeGxpbms6aHJlZj0iI01KWC01LVRFWC1JLTFENDM0IiBkYXRhLWM9IjFENDM0Ii8+PC9nPjwvZz48ZyB0cmFuc2Zvcm09InRyYW5zbGF0ZSgzODQ3LjUsMCkiIGRhdGEtbW1sLW5vZGU9Im10ZCIvPjxnIHRyYW5zZm9ybT0idHJhbnNsYXRlKDM4NDcuNSwwKSIgZGF0YS1tbWwtbm9kZT0ibXRkIj48ZyBkYXRhLW1qeC10ZXhjbGFzcz0iT1JEIiBkYXRhLW1tbC1ub2RlPSJUZVhBdG9tIj48ZyBkYXRhLW1tbC1ub2RlPSJtaSI+PHVzZSB4bGluazpocmVmPSIjTUpYLTUtVEVYLUItMUQ0MzEiIGRhdGEtYz0iMUQ0MzEiLz48L2c+PC9nPjxnIHRyYW5zZm9ybT0idHJhbnNsYXRlKDg4NC44LDApIiBkYXRhLW1tbC1ub2RlPSJtbyI+PHVzZSB4bGluazpocmVmPSIjTUpYLTUtVEVYLU4tMjI2NSIgZGF0YS1jPSIyMjY1Ii8+PC9nPjxnIHRyYW5zZm9ybT0idHJhbnNsYXRlKDE5NDAuNiwwKSIgZGF0YS1tbWwtbm9kZT0ibWkiPjx1c2UgeGxpbms6aHJlZj0iI01KWC01LVRFWC1JLTFENDRGIiBkYXRhLWM9IjFENDRGIi8+PC9nPjwvZz48L2c+PGcgdHJhbnNmb3JtPSJ0cmFuc2xhdGUoMCwtMTM3MC45KSIgZGF0YS1tbWwtbm9kZT0ibXRyIj48ZyBkYXRhLW1tbC1ub2RlPSJtdGQiLz48ZyBkYXRhLW1tbC1ub2RlPSJtdGQiLz48ZyB0cmFuc2Zvcm09InRyYW5zbGF0ZSgxODMzLjcsMCkiIGRhdGEtbW1sLW5vZGU9Im10ZCIvPjxnIHRyYW5zZm9ybT0idHJhbnNsYXRlKDE4MzMuNywwKSIgZGF0YS1tbWwtbm9kZT0ibXRkIi8+PGcgdHJhbnNmb3JtPSJ0cmFuc2xhdGUoMzg0Ny41LDApIiBkYXRhLW1tbC1ub2RlPSJtdGQiLz48ZyB0cmFuc2Zvcm09InRyYW5zbGF0ZSgzODQ3LjUsMCkiIGRhdGEtbW1sLW5vZGU9Im10ZCI+PGcgZGF0YS1tangtdGV4Y2xhc3M9Ik9SRCIgZGF0YS1tbWwtbm9kZT0iVGVYQXRvbSI+PGcgZGF0YS1tbWwtbm9kZT0ibWkiPjx1c2UgeGxpbms6aHJlZj0iI01KWC01LVRFWC1CLTFENDMxIiBkYXRhLWM9IjFENDMxIi8+PC9nPjwvZz48ZyB0cmFuc2Zvcm09InRyYW5zbGF0ZSg4ODQuOCwwKSIgZGF0YS1tbWwtbm9kZT0ibW8iPjx1c2UgeGxpbms6aHJlZj0iI01KWC01LVRFWC1OLTIyNjUiIGRhdGEtYz0iMjI2NSIvPjwvZz48ZyB0cmFuc2Zvcm09InRyYW5zbGF0ZSgxOTQwLjYsMCkiIGRhdGEtbW1sLW5vZGU9Im1uIj48dXNlIHhsaW5rOmhyZWY9IiNNSlgtNS1URVgtTi0zMCIgZGF0YS1jPSIzMCIvPjwvZz48L2c+PC9nPjwvZz48L2c+PC9nPjwvc3ZnPg==;fontFamily=Times New Roman;" vertex="1" parent="1">
          <mxGeometry x="250" y="190" width="233.33" height="140" as="geometry" />
        </mxCell>
        <mxCell id="-qssc6l0dZiJQCDXnQfR-3" value="Variable Bounds" style="rounded=1;whiteSpace=wrap;html=1;fillColor=#e1d5e7;strokeColor=default;fontFamily=Times New Roman;" vertex="1" parent="1">
          <mxGeometry x="580" y="290" width="70" height="40" as="geometry" />
        </mxCell>
        <mxCell id="-qssc6l0dZiJQCDXnQfR-6" value="Variable&lt;div&gt;Type&lt;/div&gt;" style="rounded=1;whiteSpace=wrap;html=1;fillColor=#e1d5e7;strokeColor=default;fontFamily=Times New Roman;strokeWidth=3;" vertex="1" parent="1">
          <mxGeometry x="500" y="290" width="70" height="40" as="geometry" />
        </mxCell>
        <mxCell id="-qssc6l0dZiJQCDXnQfR-7" value="Inferred Type" style="rounded=1;whiteSpace=wrap;html=1;fillColor=#d5e8d4;strokeColor=default;fontFamily=Times New Roman;strokeWidth=3;" vertex="1" parent="1">
          <mxGeometry x="580" y="240" width="70" height="40" as="geometry" />
        </mxCell>
        <mxCell id="-qssc6l0dZiJQCDXnQfR-8" value="Objective Coefficients" style="rounded=1;whiteSpace=wrap;html=1;fillColor=#f8cecc;strokeColor=default;fontFamily=Times New Roman;shadow=0;glass=0;perimeterSpacing=0;strokeWidth=3;" vertex="1" parent="1">
          <mxGeometry x="500" y="188" width="70" height="40" as="geometry" />
        </mxCell>
        <mxCell id="-qssc6l0dZiJQCDXnQfR-9" value="Variables in Objective" style="rounded=1;whiteSpace=wrap;html=1;fillColor=#f8cecc;strokeColor=default;fontFamily=Times New Roman;strokeWidth=3;" vertex="1" parent="1">
          <mxGeometry x="580" y="188" width="70" height="40" as="geometry" />
        </mxCell>
        <mxCell id="-qssc6l0dZiJQCDXnQfR-10" value="Constraint Names" style="rounded=1;whiteSpace=wrap;html=1;fillColor=#d5e8d4;strokeColor=default;fontFamily=Times New Roman;strokeWidth=3;" vertex="1" parent="1">
          <mxGeometry x="150" y="240" width="70" height="40" as="geometry" />
        </mxCell>
        <mxCell id="-qssc6l0dZiJQCDXnQfR-11" value="Variables in Constraint" style="rounded=1;whiteSpace=wrap;html=1;fillColor=#d5e8d4;strokeColor=default;fontFamily=Times New Roman;strokeWidth=1;" vertex="1" parent="1">
          <mxGeometry x="660" y="240" width="70" height="40" as="geometry" />
        </mxCell>
        <mxCell id="-qssc6l0dZiJQCDXnQfR-12" value="Variable Coefficients" style="rounded=1;whiteSpace=wrap;html=1;fillColor=#d5e8d4;strokeColor=default;fontFamily=Times New Roman;strokeWidth=3;" vertex="1" parent="1">
          <mxGeometry x="72" y="240" width="70" height="40" as="geometry" />
        </mxCell>
        <mxCell id="-qssc6l0dZiJQCDXnQfR-13" value="Right Hand Side" style="rounded=1;whiteSpace=wrap;html=1;fillColor=#d5e8d4;strokeColor=default;fontFamily=Times New Roman;strokeWidth=1;" vertex="1" parent="1">
          <mxGeometry x="500" y="240" width="70" height="40" as="geometry" />
        </mxCell>
        <mxCell id="-qssc6l0dZiJQCDXnQfR-14" value="Constraint &quot;Order&quot;" style="rounded=1;whiteSpace=wrap;html=1;fillColor=#d5e8d4;strokeColor=default;fontFamily=Times New Roman;strokeWidth=1;" vertex="1" parent="1">
          <mxGeometry x="-6" y="240" width="70" height="40" as="geometry" />
        </mxCell>
        <mxCell id="-qssc6l0dZiJQCDXnQfR-15" value="" style="rounded=0;whiteSpace=wrap;html=1;strokeColor=#b85450;align=center;verticalAlign=middle;fontFamily=Times New Roman;fontSize=12;fillColor=#f8cecc;opacity=30;" vertex="1" parent="1">
          <mxGeometry x="350" y="186" width="40" height="44" as="geometry" />
        </mxCell>
        <mxCell id="-qssc6l0dZiJQCDXnQfR-16" value="" style="rounded=0;whiteSpace=wrap;html=1;strokeColor=#82b366;align=center;verticalAlign=middle;fontFamily=Times New Roman;fontSize=12;fillColor=#d5e8d4;opacity=30;" vertex="1" parent="1">
          <mxGeometry x="350" y="240" width="34" height="42" as="geometry" />
        </mxCell>
        <mxCell id="-qssc6l0dZiJQCDXnQfR-18" value="" style="rounded=0;whiteSpace=wrap;html=1;strokeColor=#82b366;align=center;verticalAlign=middle;fontFamily=Times New Roman;fontSize=12;fillColor=#d5e8d4;opacity=30;" vertex="1" parent="1">
          <mxGeometry x="384" y="240" width="36" height="42" as="geometry" />
        </mxCell>
        <mxCell id="-qssc6l0dZiJQCDXnQfR-19" value="" style="rounded=0;whiteSpace=wrap;html=1;strokeColor=#82b366;align=center;verticalAlign=middle;fontFamily=Times New Roman;fontSize=12;fillColor=#d5e8d4;opacity=30;" vertex="1" parent="1">
          <mxGeometry x="456" y="240" width="36" height="42" as="geometry" />
        </mxCell>
        <mxCell id="-qssc6l0dZiJQCDXnQfR-22" value="" style="rounded=0;whiteSpace=wrap;html=1;strokeColor=#b85450;align=center;verticalAlign=middle;fontFamily=Times New Roman;fontSize=12;fillColor=#f8cecc;opacity=30;" vertex="1" parent="1">
          <mxGeometry x="390" y="186" width="24" height="44" as="geometry" />
        </mxCell>
        <mxCell id="-qssc6l0dZiJQCDXnQfR-25" value="" style="rounded=0;whiteSpace=wrap;html=1;strokeColor=#B5739D;align=center;verticalAlign=middle;fontFamily=Times New Roman;fontSize=12;fillColor=#e1d5e7;opacity=30;" vertex="1" parent="1">
          <mxGeometry x="384" y="290" width="108" height="44" as="geometry" />
        </mxCell>
      </root>
    </mxGraphModel>
  </diagram>
</mxfile>
